<?xml version="1.0" encoding="UTF-8" standalone="no"?>
<!-- Generator: Adobe Illustrator 18.1.1, SVG Export Plug-In . SVG Version: 6.00 Build 0)  -->

<svg
   xmlns:dc="http://purl.org/dc/elements/1.1/"
   xmlns:cc="http://creativecommons.org/ns#"
   xmlns:rdf="http://www.w3.org/1999/02/22-rdf-syntax-ns#"
   xmlns:svg="http://www.w3.org/2000/svg"
   xmlns="http://www.w3.org/2000/svg"
   xmlns:sodipodi="http://sodipodi.sourceforge.net/DTD/sodipodi-0.dtd"
   xmlns:inkscape="http://www.inkscape.org/namespaces/inkscape"
   version="1.1"
   id="Capa_1"
   x="0px"
   y="0px"
   viewBox="0 0 48 48"
   xml:space="preserve"
   inkscape:version="0.91 r13725"
   sodipodi:docname="grid-world.svg"
   width="48"
   height="48"><metadata
     id="metadata41"><rdf:RDF><cc:Work
         rdf:about=""><dc:format>image/svg+xml</dc:format><dc:type
           rdf:resource="http://purl.org/dc/dcmitype/StillImage" /><dc:title></dc:title></cc:Work></rdf:RDF></metadata><defs
     id="defs39" /><sodipodi:namedview
     pagecolor="#ffffff"
     bordercolor="#666666"
     borderopacity="1"
     objecttolerance="10"
     gridtolerance="10"
     guidetolerance="10"
     inkscape:pageopacity="0"
     inkscape:pageshadow="2"
     inkscape:window-width="2560"
     inkscape:window-height="1021"
     id="namedview37"
     showgrid="false"
     inkscape:zoom="11.125147"
     inkscape:cx="13.517813"
     inkscape:cy="29.543836"
     inkscape:window-x="0"
     inkscape:window-y="0"
     inkscape:window-maximized="1"
     inkscape:current-layer="Capa_1" /><g
     id="g3"
     transform="matrix(3.1992219,0,0,3.1992219,0,0.01167094)"><path
       style="fill:#030104"
       d="M 14.982,7 C 14.736,3.256 11.744,0.263 8,0.017 L 8,0 7.5,0 7,0 7,0.017 C 3.256,0.263 0.263,3.256 0.017,7 L 0,7 0,7.5 0,8 0.017,8 C 0.263,11.744 3.256,14.736 7,14.982 L 7,15 7.5,15 8,15 8,14.982 C 11.744,14.736 14.736,11.744 14.982,8 L 15,8 15,7.5 15,7 14.982,7 Z M 4.695,1.635 C 4.212,2.277 3.811,3.082 3.519,4 L 2.021,4 C 2.673,2.983 3.599,2.16 4.695,1.635 Z M 1.498,5 3.256,5 C 3.122,5.632 3.037,6.303 3.01,7 L 1.019,7 C 1.072,6.296 1.238,5.623 1.498,5 Z M 1.019,8 3.01,8 c 0.027,0.697 0.112,1.368 0.246,2 L 1.498,10 C 1.238,9.377 1.072,8.704 1.019,8 Z m 1.002,3 1.497,0 C 3.81,11.918 4.211,12.723 4.695,13.365 3.599,12.84 2.673,12.018 2.021,11 Z M 7,13.936 C 5.972,13.661 5.087,12.557 4.55,11 L 7,11 7,13.936 Z M 7,10 4.269,10 C 4.128,9.377 4.039,8.704 4.01,8 L 7,8 7,10 Z M 7,7 4.01,7 C 4.039,6.296 4.128,5.623 4.269,5 L 7,5 7,7 Z M 7,4 4.55,4 C 5.087,2.443 5.972,1.339 7,1.065 L 7,4 Z m 5.979,0 -1.496,0 C 11.19,3.082 10.79,2.277 10.305,1.635 11.4,2.16 12.327,2.983 12.979,4 Z M 8,1.065 C 9.027,1.339 9.913,2.443 10.45,4 L 8,4 8,1.065 Z M 8,5 10.73,5 c 0.142,0.623 0.229,1.296 0.26,2 L 8,7 8,5 Z m 0,3 2.99,0 c -0.029,0.704 -0.118,1.377 -0.26,2 L 8,10 8,8 Z M 8,13.936 8,11 10.45,11 C 9.913,12.557 9.027,13.661 8,13.936 Z m 2.305,-0.571 C 10.788,12.722 11.19,11.918 11.483,11 l 1.496,0 c -0.652,1.018 -1.579,1.84 -2.674,2.365 z M 13.502,10 11.744,10 C 11.878,9.368 11.963,8.697 11.99,8 l 1.99,0 c -0.052,0.704 -0.218,1.377 -0.478,2 z M 11.99,7 C 11.963,6.303 11.878,5.632 11.744,5 l 1.758,0 c 0.26,0.623 0.426,1.296 0.479,2 L 11.99,7 Z"
       id="path5"
       inkscape:connector-curvature="0" /></g><g
     id="g7"
     transform="translate(0,33)" /><g
     id="g9"
     transform="translate(0,33)" /><g
     id="g11"
     transform="translate(0,33)" /><g
     id="g13"
     transform="translate(0,33)" /><g
     id="g15"
     transform="translate(0,33)" /><g
     id="g17"
     transform="translate(0,33)" /><g
     id="g19"
     transform="translate(0,33)" /><g
     id="g21"
     transform="translate(0,33)" /><g
     id="g23"
     transform="translate(0,33)" /><g
     id="g25"
     transform="translate(0,33)" /><g
     id="g27"
     transform="translate(0,33)" /><g
     id="g29"
     transform="translate(0,33)" /><g
     id="g31"
     transform="translate(0,33)" /><g
     id="g33"
     transform="translate(0,33)" /><g
     id="g35"
     transform="translate(0,33)" /></svg>